<mxfile host="app.diagrams.net" modified="2022-08-14T18:12:01.814Z" agent="5.0 (Macintosh)" etag="qhzVUY5tPqQJD0sH_ffM" version="20.2.3" type="github">
  <diagram id="3228e29e-7158-1315-38df-8450db1d8a1d" name="Page-1">
    <mxGraphModel dx="946" dy="530" grid="1" gridSize="10" guides="1" tooltips="1" connect="1" arrows="1" fold="1" page="1" pageScale="1" pageWidth="1169" pageHeight="827" background="none" math="0" shadow="0">
      <root>
        <mxCell id="0" />
        <mxCell id="1" parent="0" />
        <mxCell id="21531" value="" style="ellipse;fillColor=#F08705;opacity=60;strokeColor=none;html=1;fontColor=#FFFFFF;" parent="1" vertex="1">
          <mxGeometry x="339.5" y="308.5" width="500" height="500" as="geometry" />
        </mxCell>
        <mxCell id="21532" value="" style="ellipse;fillColor=#3399FF;opacity=60;strokeColor=none;html=1;fontColor=#FFFFFF;" parent="1" vertex="1">
          <mxGeometry x="179.5" y="18.5" width="500" height="500" as="geometry" />
        </mxCell>
        <mxCell id="21533" value="" style="ellipse;fillColor=#60a917;opacity=60;strokeColor=#2D7600;html=1;fontColor=#ffffff;" parent="1" vertex="1">
          <mxGeometry x="489.5" y="18.5" width="500" height="500" as="geometry" />
        </mxCell>
        <mxCell id="21534" value="&lt;div&gt;A = Availability&lt;/div&gt;&lt;div&gt;( System is accessible &lt;br&gt;&lt;/div&gt;&lt;div&gt;even if one or more nodes are down )&lt;br&gt;&lt;/div&gt;" style="text;fontSize=24;align=center;verticalAlign=middle;html=1;fontColor=#FFFFFF;" parent="1" vertex="1">
          <mxGeometry x="299.5" y="228.5" width="190" height="70" as="geometry" />
        </mxCell>
        <mxCell id="21535" value="&lt;div&gt;C = Consistency &lt;br&gt;&lt;/div&gt;&lt;div&gt;( All users see the same data &lt;br&gt;&lt;/div&gt;&lt;div&gt;at the same time )&lt;/div&gt;" style="text;fontSize=24;align=center;verticalAlign=middle;html=1;fontColor=#FFFFFF;" parent="1" vertex="1">
          <mxGeometry x="699.5" y="228.5" width="190" height="70" as="geometry" />
        </mxCell>
        <mxCell id="21536" value="&lt;div&gt;P = Partition Tolerance &lt;br&gt;&lt;/div&gt;&lt;div&gt;( System continues to function even &lt;br&gt;&lt;/div&gt;&lt;div&gt;if communication b/w nodes fails )&lt;br&gt;&lt;/div&gt;" style="text;fontSize=24;align=center;verticalAlign=middle;html=1;fontColor=#FFFFFF;" parent="1" vertex="1">
          <mxGeometry x="499.5" y="558.5" width="190" height="70" as="geometry" />
        </mxCell>
        <mxCell id="21540" value="Not Possible" style="text;align=center;html=1;fontColor=#FFFFFF;fontSize=16;" parent="1" vertex="1">
          <mxGeometry x="569.5" y="348.5" width="40" height="40" as="geometry" />
        </mxCell>
        <mxCell id="PbfJFj0u36G_olULlOmJ-21540" value="RDMS" style="text;html=1;strokeColor=none;fillColor=none;align=center;verticalAlign=middle;whiteSpace=wrap;rounded=0;fontSize=16;fontColor=#FFFFFF;" vertex="1" parent="1">
          <mxGeometry x="545" y="188.5" width="80" height="40" as="geometry" />
        </mxCell>
        <mxCell id="PbfJFj0u36G_olULlOmJ-21542" value="Casandra, DynamoDB" style="text;html=1;strokeColor=none;fillColor=none;align=center;verticalAlign=middle;whiteSpace=wrap;rounded=0;fontSize=16;fontColor=#FFFFFF;" vertex="1" parent="1">
          <mxGeometry x="430" y="410" width="80" height="40" as="geometry" />
        </mxCell>
        <mxCell id="PbfJFj0u36G_olULlOmJ-21543" value="&lt;div&gt;MongoDB,&lt;/div&gt;&lt;div&gt;HBase&lt;br&gt;&lt;/div&gt;" style="text;html=1;strokeColor=none;fillColor=none;align=center;verticalAlign=middle;whiteSpace=wrap;rounded=0;fontSize=16;fontColor=#FFFFFF;" vertex="1" parent="1">
          <mxGeometry x="679.5" y="400" width="80" height="40" as="geometry" />
        </mxCell>
      </root>
    </mxGraphModel>
  </diagram>
</mxfile>
